<mxfile host="app.diagrams.net" modified="2020-11-30T13:09:00.143Z" agent="5.0 (X11; Linux x86_64) AppleWebKit/537.36 (KHTML, like Gecko) Chrome/87.0.4280.66 Safari/537.36" etag="1oHCxNAARcyQK_czmthm" version="13.10.4" type="github">
  <diagram id="Gkt4l7IuWjfQlbtYR7Q4" name="Page-1">
    <mxGraphModel dx="2671" dy="862" grid="1" gridSize="10" guides="1" tooltips="1" connect="1" arrows="1" fold="1" page="1" pageScale="1" pageWidth="827" pageHeight="1169" math="1" shadow="0">
      <root>
        <mxCell id="0" />
        <mxCell id="1" parent="0" />
        <mxCell id="qXdCT25wJeQhrunfbjSf-1" value="" style="ellipse;whiteSpace=wrap;html=1;aspect=fixed;" parent="1" vertex="1">
          <mxGeometry x="160" y="420" width="80" height="80" as="geometry" />
        </mxCell>
        <mxCell id="qXdCT25wJeQhrunfbjSf-2" value="" style="ellipse;whiteSpace=wrap;html=1;aspect=fixed;" parent="1" vertex="1">
          <mxGeometry x="320" y="420" width="80" height="80" as="geometry" />
        </mxCell>
        <mxCell id="qXdCT25wJeQhrunfbjSf-19" value="" style="edgeStyle=orthogonalEdgeStyle;rounded=0;orthogonalLoop=1;jettySize=auto;html=1;" parent="1" source="qXdCT25wJeQhrunfbjSf-3" edge="1">
          <mxGeometry relative="1" as="geometry">
            <mxPoint x="605" y="460" as="targetPoint" />
          </mxGeometry>
        </mxCell>
        <mxCell id="qXdCT25wJeQhrunfbjSf-3" value="" style="ellipse;whiteSpace=wrap;html=1;aspect=fixed;" parent="1" vertex="1">
          <mxGeometry x="480" y="420" width="80" height="80" as="geometry" />
        </mxCell>
        <mxCell id="qXdCT25wJeQhrunfbjSf-4" value="" style="endArrow=classic;html=1;exitX=1;exitY=0.5;exitDx=0;exitDy=0;entryX=0;entryY=0.5;entryDx=0;entryDy=0;" parent="1" source="qXdCT25wJeQhrunfbjSf-1" target="qXdCT25wJeQhrunfbjSf-2" edge="1">
          <mxGeometry width="50" height="50" relative="1" as="geometry">
            <mxPoint x="470" y="580" as="sourcePoint" />
            <mxPoint x="520" y="530" as="targetPoint" />
          </mxGeometry>
        </mxCell>
        <mxCell id="qXdCT25wJeQhrunfbjSf-8" value="" style="endArrow=classic;html=1;exitX=1;exitY=0.5;exitDx=0;exitDy=0;entryX=0;entryY=0.5;entryDx=0;entryDy=0;" parent="1" edge="1">
          <mxGeometry width="50" height="50" relative="1" as="geometry">
            <mxPoint x="400" y="459.5" as="sourcePoint" />
            <mxPoint x="480" y="459.5" as="targetPoint" />
          </mxGeometry>
        </mxCell>
        <mxCell id="qXdCT25wJeQhrunfbjSf-16" value="" style="edgeStyle=orthogonalEdgeStyle;rounded=0;orthogonalLoop=1;jettySize=auto;html=1;" parent="1" source="qXdCT25wJeQhrunfbjSf-14" target="qXdCT25wJeQhrunfbjSf-1" edge="1">
          <mxGeometry relative="1" as="geometry" />
        </mxCell>
        <mxCell id="qXdCT25wJeQhrunfbjSf-14" value="&lt;font size=&quot;1&quot;&gt;&lt;span style=&quot;font-size: 25px&quot;&gt;x&lt;/span&gt;&lt;/font&gt;" style="text;html=1;align=center;verticalAlign=middle;resizable=0;points=[];autosize=1;strokeColor=#000000;" parent="1" vertex="1">
          <mxGeometry x="90" y="445" width="30" height="30" as="geometry" />
        </mxCell>
        <mxCell id="qXdCT25wJeQhrunfbjSf-20" value="&lt;font style=&quot;font-size: 25px&quot;&gt;t = h(z), z ~ P(z|f(x))&lt;/font&gt;" style="text;html=1;align=center;verticalAlign=middle;resizable=0;points=[];autosize=1;strokeColor=#000000;" parent="1" vertex="1">
          <mxGeometry x="605" y="445" width="240" height="30" as="geometry" />
        </mxCell>
        <mxCell id="qXdCT25wJeQhrunfbjSf-21" value="&lt;font size=&quot;1&quot;&gt;&lt;span style=&quot;font-size: 25px&quot;&gt;f&lt;/span&gt;&lt;/font&gt;" style="text;html=1;align=center;verticalAlign=middle;resizable=0;points=[];autosize=1;strokeColor=#000000;rounded=1;" parent="1" vertex="1">
          <mxGeometry x="190" y="390" width="20" height="30" as="geometry" />
        </mxCell>
        <mxCell id="qXdCT25wJeQhrunfbjSf-23" value="&lt;span style=&quot;font-size: 25px&quot;&gt;P(z|f(x))&lt;/span&gt;" style="text;html=1;align=center;verticalAlign=middle;resizable=0;points=[];autosize=1;strokeColor=#000000;rounded=1;" parent="1" vertex="1">
          <mxGeometry x="310" y="390" width="100" height="30" as="geometry" />
        </mxCell>
        <mxCell id="qXdCT25wJeQhrunfbjSf-24" value="&lt;span style=&quot;font-size: 25px&quot;&gt;h&lt;/span&gt;" style="text;html=1;align=center;verticalAlign=middle;resizable=0;points=[];autosize=1;strokeColor=#000000;rounded=1;" parent="1" vertex="1">
          <mxGeometry x="505" y="390" width="30" height="30" as="geometry" />
        </mxCell>
        <mxCell id="qXdCT25wJeQhrunfbjSf-36" value="" style="ellipse;whiteSpace=wrap;html=1;aspect=fixed;" parent="1" vertex="1">
          <mxGeometry x="160" y="80" width="80" height="80" as="geometry" />
        </mxCell>
        <mxCell id="qXdCT25wJeQhrunfbjSf-37" value="" style="ellipse;whiteSpace=wrap;html=1;aspect=fixed;" parent="1" vertex="1">
          <mxGeometry x="320" y="80" width="80" height="80" as="geometry" />
        </mxCell>
        <mxCell id="qXdCT25wJeQhrunfbjSf-38" value="" style="edgeStyle=orthogonalEdgeStyle;rounded=0;orthogonalLoop=1;jettySize=auto;html=1;" parent="1" source="qXdCT25wJeQhrunfbjSf-39" edge="1">
          <mxGeometry relative="1" as="geometry">
            <mxPoint x="605" y="120" as="targetPoint" />
          </mxGeometry>
        </mxCell>
        <mxCell id="qXdCT25wJeQhrunfbjSf-39" value="" style="ellipse;whiteSpace=wrap;html=1;aspect=fixed;" parent="1" vertex="1">
          <mxGeometry x="480" y="80" width="80" height="80" as="geometry" />
        </mxCell>
        <mxCell id="qXdCT25wJeQhrunfbjSf-40" value="" style="endArrow=classic;html=1;exitX=1;exitY=0.5;exitDx=0;exitDy=0;entryX=0;entryY=0.5;entryDx=0;entryDy=0;" parent="1" source="qXdCT25wJeQhrunfbjSf-36" target="qXdCT25wJeQhrunfbjSf-37" edge="1">
          <mxGeometry width="50" height="50" relative="1" as="geometry">
            <mxPoint x="470" y="240" as="sourcePoint" />
            <mxPoint x="520" y="190" as="targetPoint" />
          </mxGeometry>
        </mxCell>
        <mxCell id="qXdCT25wJeQhrunfbjSf-41" value="" style="endArrow=classic;html=1;exitX=1;exitY=0.5;exitDx=0;exitDy=0;entryX=0;entryY=0.5;entryDx=0;entryDy=0;" parent="1" edge="1">
          <mxGeometry width="50" height="50" relative="1" as="geometry">
            <mxPoint x="400" y="119.5" as="sourcePoint" />
            <mxPoint x="480" y="119.5" as="targetPoint" />
          </mxGeometry>
        </mxCell>
        <mxCell id="qXdCT25wJeQhrunfbjSf-42" value="" style="edgeStyle=orthogonalEdgeStyle;rounded=0;orthogonalLoop=1;jettySize=auto;html=1;" parent="1" source="qXdCT25wJeQhrunfbjSf-43" target="qXdCT25wJeQhrunfbjSf-36" edge="1">
          <mxGeometry relative="1" as="geometry" />
        </mxCell>
        <mxCell id="qXdCT25wJeQhrunfbjSf-43" value="&lt;font size=&quot;1&quot;&gt;&lt;span style=&quot;font-size: 25px&quot;&gt;x&lt;/span&gt;&lt;/font&gt;" style="text;html=1;align=center;verticalAlign=middle;resizable=0;points=[];autosize=1;strokeColor=#000000;" parent="1" vertex="1">
          <mxGeometry x="90" y="105" width="30" height="30" as="geometry" />
        </mxCell>
        <mxCell id="qXdCT25wJeQhrunfbjSf-44" value="&lt;font style=&quot;font-size: 25px&quot;&gt;t&lt;/font&gt;" style="text;html=1;align=center;verticalAlign=middle;resizable=0;points=[];autosize=1;strokeColor=#000000;" parent="1" vertex="1">
          <mxGeometry x="605" y="105" width="20" height="30" as="geometry" />
        </mxCell>
        <mxCell id="qXdCT25wJeQhrunfbjSf-45" value="&lt;font size=&quot;1&quot;&gt;&lt;span style=&quot;font-size: 25px&quot;&gt;f&lt;/span&gt;&lt;/font&gt;" style="text;html=1;align=center;verticalAlign=middle;resizable=0;points=[];autosize=1;strokeColor=#000000;rounded=1;" parent="1" vertex="1">
          <mxGeometry x="190" y="50" width="20" height="30" as="geometry" />
        </mxCell>
        <mxCell id="qXdCT25wJeQhrunfbjSf-46" value="&lt;span style=&quot;font-size: 25px&quot;&gt;g&lt;/span&gt;" style="text;html=1;align=center;verticalAlign=middle;resizable=0;points=[];autosize=1;strokeColor=#000000;rounded=1;" parent="1" vertex="1">
          <mxGeometry x="345" y="50" width="30" height="30" as="geometry" />
        </mxCell>
        <mxCell id="qXdCT25wJeQhrunfbjSf-47" value="&lt;span style=&quot;font-size: 25px&quot;&gt;h&lt;/span&gt;" style="text;html=1;align=center;verticalAlign=middle;resizable=0;points=[];autosize=1;strokeColor=#000000;rounded=1;" parent="1" vertex="1">
          <mxGeometry x="505" y="50" width="30" height="30" as="geometry" />
        </mxCell>
        <mxCell id="qXdCT25wJeQhrunfbjSf-51" value="&lt;font style=&quot;font-size: 22px&quot;&gt;$$&lt;br&gt;\dfrac{dt}{dx} = \dfrac{dh}{dh}\dfrac{dg}{df}\dfrac{df}{dx}&lt;br&gt;$$&lt;/font&gt;" style="text;html=1;align=center;verticalAlign=middle;resizable=0;points=[];autosize=1;" parent="1" vertex="1">
          <mxGeometry x="-100" y="180" width="550" height="60" as="geometry" />
        </mxCell>
        <mxCell id="qXdCT25wJeQhrunfbjSf-53" value="&lt;font style=&quot;font-size: 22px&quot;&gt;$$&lt;br&gt;\dfrac{d\mathbb{Et}}{dx} =\ ?&lt;br&gt;$$&lt;/font&gt;" style="text;html=1;align=center;verticalAlign=middle;resizable=0;points=[];autosize=1;" parent="1" vertex="1">
          <mxGeometry x="-20" y="540" width="290" height="60" as="geometry" />
        </mxCell>
        <mxCell id="qXdCT25wJeQhrunfbjSf-54" value="&lt;font style=&quot;font-size: 22px&quot;&gt;$$&lt;br&gt;\dfrac{d\mathbb{Et}}{dx} =&amp;nbsp;\dfrac{1}{dx}\int{P(z|f(x))h(z)dz}&lt;br&gt;$$&lt;/font&gt;" style="text;html=1;align=center;verticalAlign=middle;resizable=0;points=[];autosize=1;" parent="1" vertex="1">
          <mxGeometry x="-40" y="620" width="580" height="60" as="geometry" />
        </mxCell>
        <mxCell id="qXdCT25wJeQhrunfbjSf-55" value="&lt;font style=&quot;font-size: 22px&quot;&gt;1) REINFORCE&lt;br&gt;&lt;br&gt;&lt;br&gt;&lt;br&gt;&lt;br&gt;&lt;br&gt;&lt;br&gt;&lt;br&gt;&lt;br&gt;&lt;br&gt;&lt;br&gt;&lt;br&gt;&lt;br&gt;&lt;br&gt;&lt;br&gt;&lt;br&gt;2) Reparametrization trick&lt;/font&gt;" style="text;html=1;align=left;verticalAlign=middle;resizable=0;points=[];autosize=1;" parent="1" vertex="1">
          <mxGeometry x="65" y="940" width="270" height="300" as="geometry" />
        </mxCell>
        <mxCell id="qXdCT25wJeQhrunfbjSf-57" value="&lt;span style=&quot;color: rgb(0 , 0 , 0) ; font-family: &amp;#34;helvetica&amp;#34; ; font-size: 20px ; font-style: normal ; font-weight: 400 ; letter-spacing: normal ; text-align: center ; text-indent: 0px ; text-transform: none ; word-spacing: 0px ; background-color: rgb(248 , 249 , 250) ; display: inline ; float: none&quot;&gt;RL&amp;nbsp; VAE&amp;nbsp; &lt;br&gt;Baesian NNs&lt;/span&gt;" style="ellipse;shape=cloud;whiteSpace=wrap;html=1;rounded=1;strokeColor=#000000;" parent="1" vertex="1">
          <mxGeometry x="-30" y="320" width="180" height="120" as="geometry" />
        </mxCell>
        <mxCell id="qXdCT25wJeQhrunfbjSf-60" value="" style="html=1;verticalLabelPosition=bottom;align=center;labelBackgroundColor=#ffffff;verticalAlign=top;strokeWidth=2;strokeColor=#0080F0;shadow=0;dashed=0;shape=mxgraph.ios7.icons.heart;rounded=1;" parent="1" vertex="1">
          <mxGeometry x="-176.91999999999996" y="335" width="156.92" height="140" as="geometry" />
        </mxCell>
        <mxCell id="qXdCT25wJeQhrunfbjSf-61" value="&lt;span style=&quot;font-family: &amp;#34;helvetica&amp;#34; ; font-size: 20px&quot;&gt;RL&amp;nbsp; VAE&amp;nbsp;&amp;nbsp;&lt;/span&gt;&lt;br style=&quot;font-family: &amp;#34;helvetica&amp;#34; ; font-size: 20px&quot;&gt;&lt;span style=&quot;font-family: &amp;#34;helvetica&amp;#34; ; font-size: 20px&quot;&gt;Baesian NNs&lt;/span&gt;" style="text;html=1;align=center;verticalAlign=middle;resizable=0;points=[];autosize=1;" parent="1" vertex="1">
          <mxGeometry x="-163.45999999999992" y="370" width="130" height="40" as="geometry" />
        </mxCell>
        <mxCell id="IxznOPDe4u0LPAcEFY_a-4" value="&lt;font style=&quot;font-size: 22px&quot;&gt;$$&lt;br&gt;z = g(\varepsilon, f(x)),&lt;br&gt;\\&lt;br&gt;\varepsilon=r(\varepsilon)&amp;nbsp;&lt;br&gt;$$&lt;/font&gt;" style="text;html=1;align=left;verticalAlign=middle;resizable=0;points=[];autosize=1;" vertex="1" parent="1">
          <mxGeometry x="350" y="1385" width="270" height="90" as="geometry" />
        </mxCell>
        <mxCell id="IxznOPDe4u0LPAcEFY_a-5" value="&lt;font style=&quot;font-size: 22px&quot;&gt;$$&lt;br&gt;\approx \dfrac{d}{dx}h(g(\hat{\varepsilon}), f(x)) =&lt;br&gt;\\&lt;br&gt;= \dfrac{dh}{dg}\dfrac{\partial g(\hat{\varepsilon}, f(x))}{\partial f}\dfrac{df}{dx}&lt;br&gt;$$&lt;/font&gt;" style="text;html=1;align=center;verticalAlign=middle;resizable=0;points=[];autosize=1;" vertex="1" parent="1">
          <mxGeometry x="450" y="1400" width="760" height="90" as="geometry" />
        </mxCell>
        <mxCell id="IxznOPDe4u0LPAcEFY_a-8" value="" style="endArrow=classic;html=1;exitX=0.579;exitY=1.098;exitDx=0;exitDy=0;exitPerimeter=0;entryX=1;entryY=0;entryDx=0;entryDy=0;" edge="1" parent="1" source="IxznOPDe4u0LPAcEFY_a-10" target="IxznOPDe4u0LPAcEFY_a-22">
          <mxGeometry width="50" height="50" relative="1" as="geometry">
            <mxPoint x="900" y="1230" as="sourcePoint" />
            <mxPoint x="950" y="1180" as="targetPoint" />
          </mxGeometry>
        </mxCell>
        <mxCell id="IxznOPDe4u0LPAcEFY_a-10" value="&lt;font style=&quot;font-size: 18px&quot;&gt;g дифференцируема, иначе не можем!&lt;br&gt;g - дискретная случайная величина!!!&lt;/font&gt;" style="text;html=1;align=center;verticalAlign=middle;resizable=0;points=[];autosize=1;" vertex="1" parent="1">
          <mxGeometry x="840" y="1300" width="340" height="30" as="geometry" />
        </mxCell>
        <mxCell id="IxznOPDe4u0LPAcEFY_a-15" value="&lt;font style=&quot;font-size: 22px&quot;&gt;$$&lt;br&gt;\hat{\varepsilon}=r(\varepsilon)&amp;nbsp;&lt;br&gt;$$&lt;/font&gt;" style="text;html=1;align=left;verticalAlign=middle;resizable=0;points=[];autosize=1;" vertex="1" parent="1">
          <mxGeometry x="720" y="1530" width="320" height="60" as="geometry" />
        </mxCell>
        <mxCell id="IxznOPDe4u0LPAcEFY_a-17" value="&lt;span style=&quot;color: rgb(0 , 0 , 0) ; font-family: &amp;#34;helvetica&amp;#34; ; font-size: 22px ; font-style: normal ; font-weight: 400 ; letter-spacing: normal ; text-align: center ; text-indent: 0px ; text-transform: none ; word-spacing: 0px ; background-color: rgb(248 , 249 , 250) ; display: inline ; float: none&quot;&gt;$$&lt;br&gt;&amp;nbsp;\int{\dfrac{\partial P(z|f(x))}{\partial x}h(z)dz} = \text{log-der-trick} = \int{P(z|f(x))\dfrac{\partial log P(z|f(x))}{\partial x}dz}&lt;br&gt;=$$&lt;br&gt;&lt;/span&gt;" style="text;whiteSpace=wrap;html=1;" vertex="1" parent="1">
          <mxGeometry x="30" y="960" width="330" height="120" as="geometry" />
        </mxCell>
        <mxCell id="IxznOPDe4u0LPAcEFY_a-21" value="$$&lt;br&gt;\approx \hat{z}= P(z|f(x)) \approx \dfrac{\partial log P(\hat{z}|f(x))}{\partial f} \dfrac{df}{dx}h(\hat{z})&lt;br&gt;$$&amp;nbsp;" style="text;html=1;align=center;verticalAlign=middle;resizable=0;points=[];autosize=1;fontSize=22;" vertex="1" parent="1">
          <mxGeometry x="-200" y="1089" width="960" height="80" as="geometry" />
        </mxCell>
        <mxCell id="IxznOPDe4u0LPAcEFY_a-22" value="" style="rounded=0;whiteSpace=wrap;html=1;fontSize=22;labelBackgroundColor=none;labelBorderColor=#000000;fillColor=none;strokeColor=#FF792B;strokeWidth=5;" vertex="1" parent="1">
          <mxGeometry x="730" y="1440" width="230" height="80" as="geometry" />
        </mxCell>
        <mxCell id="IxznOPDe4u0LPAcEFY_a-23" value="" style="rounded=0;whiteSpace=wrap;html=1;fontSize=22;labelBackgroundColor=none;labelBorderColor=#000000;fillColor=none;strokeColor=#FF792B;strokeWidth=5;" vertex="1" parent="1">
          <mxGeometry x="260" y="1070" width="280" height="80" as="geometry" />
        </mxCell>
        <mxCell id="IxznOPDe4u0LPAcEFY_a-24" value="" style="endArrow=classic;html=1;fontSize=22;fontColor=#000000;entryX=1;entryY=0.5;entryDx=0;entryDy=0;" edge="1" parent="1" target="IxznOPDe4u0LPAcEFY_a-23">
          <mxGeometry width="50" height="50" relative="1" as="geometry">
            <mxPoint x="930" y="1130" as="sourcePoint" />
            <mxPoint x="980" y="1080" as="targetPoint" />
          </mxGeometry>
        </mxCell>
        <mxCell id="IxznOPDe4u0LPAcEFY_a-25" value="&lt;font style=&quot;font-size: 18px&quot;&gt;Проивзодная h не учитывается =&amp;gt; &lt;br&gt;меньше данных =&amp;gt; &lt;br&gt;большая очень дсиперсия&lt;/font&gt;" style="text;html=1;align=center;verticalAlign=middle;resizable=0;points=[];autosize=1;fontSize=22;fontColor=#000000;" vertex="1" parent="1">
          <mxGeometry x="895" y="1084" width="300" height="90" as="geometry" />
        </mxCell>
        <mxCell id="IxznOPDe4u0LPAcEFY_a-27" value="&lt;font style=&quot;font-size: 22px&quot;&gt;$$&lt;br&gt;\dfrac{d\mathbb{Et}}{dx} =&amp;nbsp;\dfrac{1}{dx}\int{P(z|f(x))h(z)dz}&lt;br&gt;$$&lt;/font&gt;" style="text;html=1;align=center;verticalAlign=middle;resizable=0;points=[];autosize=1;" vertex="1" parent="1">
          <mxGeometry x="-670" y="1210" width="580" height="60" as="geometry" />
        </mxCell>
        <mxCell id="IxznOPDe4u0LPAcEFY_a-28" value="" style="endArrow=classic;html=1;fontSize=22;fontColor=#000000;entryX=-0.009;entryY=0.397;entryDx=0;entryDy=0;entryPerimeter=0;" edge="1" parent="1" target="IxznOPDe4u0LPAcEFY_a-4">
          <mxGeometry width="50" height="50" relative="1" as="geometry">
            <mxPoint x="260" y="1420" as="sourcePoint" />
            <mxPoint x="310" y="1370" as="targetPoint" />
          </mxGeometry>
        </mxCell>
        <mxCell id="IxznOPDe4u0LPAcEFY_a-29" value="" style="endArrow=classic;html=1;fontSize=22;fontColor=#000000;entryX=-0.009;entryY=0.397;entryDx=0;entryDy=0;entryPerimeter=0;" edge="1" parent="1">
          <mxGeometry width="50" height="50" relative="1" as="geometry">
            <mxPoint x="557.4300000000001" y="1429.5" as="sourcePoint" />
            <mxPoint x="645.0000000000002" y="1430.23" as="targetPoint" />
          </mxGeometry>
        </mxCell>
        <mxCell id="IxznOPDe4u0LPAcEFY_a-33" value="" style="endArrow=none;html=1;fontSize=22;fontColor=#000000;strokeWidth=4;" edge="1" parent="1">
          <mxGeometry width="50" height="50" relative="1" as="geometry">
            <mxPoint x="-123" y="1510" as="sourcePoint" />
            <mxPoint x="-123" y="990" as="targetPoint" />
          </mxGeometry>
        </mxCell>
        <mxCell id="IxznOPDe4u0LPAcEFY_a-34" value="Task:" style="text;html=1;align=center;verticalAlign=middle;resizable=0;points=[];autosize=1;fontSize=22;fontColor=#000000;" vertex="1" parent="1">
          <mxGeometry x="-555" y="1065" width="70" height="30" as="geometry" />
        </mxCell>
        <mxCell id="IxznOPDe4u0LPAcEFY_a-35" value="&lt;font style=&quot;font-size: 22px&quot;&gt;$$&lt;br&gt;\dfrac{1}{dx}\int{P(z|f(x))h(z)dz}&lt;br&gt;$$&lt;/font&gt;" style="text;html=1;align=center;verticalAlign=middle;resizable=0;points=[];autosize=1;" vertex="1" parent="1">
          <mxGeometry x="-50" y="1390" width="320" height="60" as="geometry" />
        </mxCell>
      </root>
    </mxGraphModel>
  </diagram>
</mxfile>
